g Brow
v 0.02448716 1.575204 0.1243905
v 0.01863223 1.574261 0.1258867
v 0.02384752 1.578108 0.1254839
v 0.02950041 1.576622 0.1232505
v 0.02858566 1.580444 0.124313
v 0.03467115 1.578173 0.1219723
v 0.0335638 1.58229 0.1230039
v 0.03996819 1.579987 0.1205749
v 0.03917859 1.583533 0.1215989
v 0.0454656 1.581609 0.1191405
v 0.04484269 1.584674 0.1201571
v 0.05163755 1.583628 0.1172479
v 0.05113138 1.585967 0.1181905
v 0.05765001 1.585151 0.1143469
v 0.05732602 1.586891 0.1152154
v 0.06225513 1.586043 0.1113155
v 0.06192223 1.587347 0.1119945
v 0.06660914 1.586679 0.106242
v 0.06646931 1.587374 0.1067314
v 0.06935056 1.586958 0.1023412
v -0.0244871 1.575204 0.1243905
v -0.02384746 1.578108 0.1254839
v -0.01863215 1.574261 0.1258867
v -0.02858558 1.580444 0.124313
v -0.02950033 1.576622 0.1232505
v -0.03467106 1.578173 0.1219723
v -0.03356371 1.58229 0.1230039
v -0.03917851 1.583533 0.1215989
v -0.0399681 1.579987 0.1205749
v -0.04546552 1.581609 0.1191405
v -0.04484261 1.584674 0.1201571
v -0.05163747 1.583628 0.1172479
v -0.0511313 1.585967 0.1181905
v -0.05732594 1.586891 0.1152154
v -0.05764994 1.585151 0.1143469
v -0.06225505 1.586043 0.1113155
v -0.06192214 1.587347 0.1119945
v -0.06646924 1.587374 0.1067314
v -0.06660908 1.586679 0.106242
v -0.06935048 1.586958 0.1023412
vt 0.1419122 0.9662212
vt 0.1148649 0.968263
vt 0.140609 0.9770591
vt 0.1528168 0.9682651
vt 0.1515966 0.9791094
vt 0.1637213 0.9703088
vt 0.1625843 0.9811597
vt 0.1771499 0.9722987
vt 0.1759221 0.9820877
vt 0.1905785 0.9742885
vt 0.1892599 0.9830158
vt 0.2036709 0.975724
vt 0.2025803 0.9827745
vt 0.2167633 0.9771594
vt 0.2159007 0.9825332
vt 0.2270076 0.9772671
vt 0.2264071 0.9816711
vt 0.237252 0.977375
vt 0.2369135 0.980809
vt 0.2562686 0.9770909
vt 0.1419122 0.9662212
vt 0.140609 0.9770591
vt 0.1148649 0.968263
vt 0.1515966 0.9791094
vt 0.1528168 0.9682651
vt 0.1637213 0.9703088
vt 0.1625843 0.9811597
vt 0.1759221 0.9820877
vt 0.1771499 0.9722987
vt 0.1905785 0.9742885
vt 0.1892599 0.9830158
vt 0.2036709 0.975724
vt 0.2025803 0.9827745
vt 0.2159007 0.9825332
vt 0.2167633 0.9771594
vt 0.2270076 0.9772671
vt 0.2264071 0.9816711
vt 0.2369135 0.980809
vt 0.237252 0.977375
vt 0.2562686 0.9770909
vn 0.2981496 -0.2437524 0.9228715
vn 0.2800068 -0.2835839 0.9171568
vn 0.2994674 -0.2407897 0.9232224
vn 0.3012264 -0.1962902 0.9331307
vn 0.3009623 -0.1947363 0.9335413
vn 0.2942932 -0.1760373 0.9393628
vn 0.2943718 -0.1759246 0.9393593
vn 0.2931721 -0.200203 0.934863
vn 0.2931134 -0.1993911 0.935055
vn 0.3201916 -0.2387871 0.916765
vn 0.3190056 -0.2380881 0.91736
vn 0.4005383 -0.2668322 0.8765669
vn 0.3920875 -0.2649495 0.8809479
vn 0.5083025 -0.2771576 0.8153602
vn 0.4937581 -0.2780957 0.8239331
vn 0.6717358 -0.2307508 0.7039354
vn 0.6256416 -0.250306 0.7388636
vn 0.7682682 -0.2032929 0.6069891
vn 0.7551511 -0.1958255 0.6256191
vn 0.8045592 -0.2247443 0.5497041
vn -0.2981553 -0.243754 0.9228691
vn -0.2994707 -0.2407891 0.9232215
vn -0.2800454 -0.2836145 0.9171355
vn -0.3009579 -0.1947324 0.9335436
vn -0.3012217 -0.196286 0.9331331
vn -0.2942927 -0.1760375 0.9393629
vn -0.2943713 -0.1759248 0.9393594
vn -0.2931145 -0.1993926 0.9350542
vn -0.2931733 -0.2002045 0.9348623
vn -0.3201912 -0.238787 0.9167651
vn -0.3190055 -0.2380882 0.9173601
vn -0.4005357 -0.2668309 0.8765686
vn -0.3920845 -0.2649478 0.8809497
vn -0.4937511 -0.2780915 0.8239388
vn -0.5082923 -0.2771511 0.8153687
vn -0.6717281 -0.2307399 0.7039463
vn -0.6256267 -0.2502933 0.7388805
vn -0.7551553 -0.195821 0.6256154
vn -0.7682807 -0.2032931 0.6069734
vn -0.8045946 -0.2247588 0.5496463
g Brow_0
f 3/3/3 2/2/2 1/1/1
f 3/3/3 1/1/1 4/4/4
f 5/5/5 3/3/3 4/4/4
f 5/5/5 4/4/4 6/6/6
f 7/7/7 5/5/5 6/6/6
f 7/7/7 6/6/6 8/8/8
f 9/9/9 7/7/7 8/8/8
f 9/9/9 8/8/8 10/10/10
f 11/11/11 9/9/9 10/10/10
f 10/10/10 12/12/12 11/11/11
f 12/12/12 13/13/13 11/11/11
f 12/12/12 14/14/14 13/13/13
f 14/14/14 15/15/15 13/13/13
f 14/14/14 16/16/16 15/15/15
f 16/16/16 17/17/17 15/15/15
f 16/16/16 18/18/18 17/17/17
f 18/18/18 19/19/19 17/17/17
f 18/18/18 20/20/20 19/19/19
f 23/23/23 22/22/22 21/21/21
f 21/21/21 22/22/22 24/24/24
f 25/25/25 21/21/21 24/24/24
f 25/25/25 24/24/24 26/26/26
f 24/24/24 27/27/27 26/26/26
f 26/26/26 27/27/27 28/28/28
f 29/29/29 26/26/26 28/28/28
f 29/29/29 28/28/28 30/30/30
f 28/28/28 31/31/31 30/30/30
f 32/32/32 30/30/30 31/31/31
f 33/33/33 32/32/32 31/31/31
f 33/33/33 34/34/34 32/32/32
f 34/34/34 35/35/35 32/32/32
f 36/36/36 35/35/35 34/34/34
f 37/37/37 36/36/36 34/34/34
f 37/37/37 38/38/38 36/36/36
f 38/38/38 39/39/39 36/36/36
f 40/40/40 39/39/39 38/38/38
