g Brow
v 0.02131015 1.710336 0.09905861
v 0.01765572 1.709343 0.1000313
v 0.01723794 1.71044 0.1013331
v 0.0205185 1.712217 0.1012025
v 0.01636194 1.711532 0.1016535
v 0.0190132 1.714018 0.1018917
v 0.02436929 1.714071 0.1008085
v 0.02273221 1.716679 0.1017703
v 0.02887791 1.715426 0.0996035
v 0.02964472 1.713337 0.09743871
v 0.02511111 1.71187 0.09848847
v 0.02749434 1.717776 0.1004057
v 0.03237702 1.718497 0.09859424
v 0.03351426 1.716308 0.09804387
v 0.03811144 1.717249 0.09638437
v 0.03822699 1.715389 0.09475414
v 0.03374501 1.714402 0.09629927
v 0.0376425 1.719251 0.09655562
v 0.04243824 1.718039 0.09473418
v 0.04201124 1.719841 0.09465787
v 0.04670604 1.718786 0.09272558
v 0.04625296 1.720382 0.09246194
v 0.04239292 1.716307 0.09317423
v 0.04670537 1.717224 0.09125737
v 0.05045303 1.717943 0.08922959
v 0.05075059 1.719357 0.09030317
v 0.05382632 1.7184 0.08685365
v 0.05429745 1.719674 0.08754121
v 0.05018577 1.720858 0.09007617
v 0.05376929 1.720949 0.08707329
v 0.05801283 1.719741 0.08356561
v 0.05739668 1.720758 0.08335822
v 0.06128119 1.719673 0.07903767
v 0.05774037 1.718711 0.08284259
v 0.06093946 1.719002 0.07848598
v 0.06086992 1.720492 0.07879804
v 0.06424405 1.719417 0.07368836
v 0.01396817 1.708584 0.1011783
v 0.06093946 1.719002 0.07848598
v 0.06424405 1.719417 0.07368836
v 0.06078002 1.718754 0.07865321
v 0.05774037 1.718711 0.08284259
v 0.05763496 1.718285 0.08268254
v 0.05382632 1.7184 0.08685365
v 0.05362334 1.717838 0.08637067
v 0.05045303 1.717943 0.08922959
v 0.05030292 1.717206 0.08848757
v 0.04670537 1.717224 0.09125737
v 0.0464806 1.716446 0.09018751
v 0.04239292 1.716307 0.09317423
v 0.04215111 1.715454 0.09215026
v 0.03822699 1.715389 0.09475414
v 0.03810238 1.714463 0.09361912
v 0.03374501 1.714402 0.09629927
v 0.03379821 1.713272 0.09491722
v 0.0298222 1.711918 0.09606306
v 0.02964472 1.713337 0.09743871
v 0.02511111 1.71187 0.09848847
v 0.02536908 1.710314 0.09697492
v 0.02131015 1.710336 0.09905861
v 0.02146518 1.708596 0.0978367
v 0.01765572 1.709343 0.1000313
v 0.01785651 1.708442 0.0992449
v 0.01520829 1.708835 0.1006918
v -0.02131016 1.710336 0.09905861
v -0.02051851 1.712217 0.1012026
v -0.01723795 1.71044 0.1013331
v -0.01765574 1.709343 0.1000313
v -0.01636195 1.711532 0.1016535
v -0.0190132 1.714018 0.1018917
v -0.0243693 1.714071 0.1008085
v -0.02273221 1.716679 0.1017703
v -0.02887791 1.715426 0.0996035
v -0.02964472 1.713337 0.09743869
v -0.02511112 1.71187 0.09848847
v -0.02749435 1.717776 0.1004057
v -0.03237703 1.718497 0.09859424
v -0.03351427 1.716308 0.09804387
v -0.03811145 1.717249 0.09638437
v -0.038227 1.715389 0.09475414
v -0.03374502 1.714402 0.09629927
v -0.03764251 1.719251 0.09655562
v -0.04243825 1.718039 0.09473418
v -0.04201125 1.719841 0.09465787
v -0.04670605 1.718786 0.09272558
v -0.04625297 1.720382 0.09246194
v -0.04239292 1.716307 0.09317423
v -0.04670537 1.717224 0.09125737
v -0.05045303 1.717943 0.08922959
v -0.0507506 1.719357 0.09030317
v -0.05382632 1.7184 0.08685365
v -0.05429745 1.719674 0.08754121
v -0.05018578 1.720858 0.09007617
v -0.0537693 1.720949 0.0870733
v -0.05801283 1.719741 0.08356561
v -0.05739668 1.720758 0.08335822
v -0.0612812 1.719673 0.07903767
v -0.05774037 1.718711 0.08284259
v -0.06093947 1.719002 0.07848598
v -0.06086993 1.720492 0.07879804
v -0.06424406 1.719417 0.07368837
v -0.01396817 1.708584 0.1011783
v -0.06093947 1.719002 0.07848598
v -0.06078003 1.718754 0.07865321
v -0.06424406 1.719417 0.07368837
v -0.05774037 1.718711 0.08284259
v -0.05763496 1.718285 0.08268254
v -0.05382632 1.7184 0.08685365
v -0.05362335 1.717838 0.08637067
v -0.05045303 1.717943 0.08922959
v -0.05030293 1.717206 0.08848757
v -0.04670537 1.717224 0.09125737
v -0.04648061 1.716446 0.09018751
v -0.04239292 1.716307 0.09317423
v -0.04215112 1.715454 0.09215026
v -0.038227 1.715389 0.09475414
v -0.03810238 1.714463 0.09361912
v -0.03374502 1.714402 0.09629927
v -0.03379821 1.713272 0.09491722
v -0.02982221 1.711918 0.09606306
v -0.02964472 1.713337 0.09743869
v -0.02511112 1.71187 0.09848847
v -0.02536909 1.710314 0.09697492
v -0.02131016 1.710336 0.09905861
v -0.02146519 1.708596 0.0978367
v -0.01765574 1.709343 0.1000313
v -0.01785652 1.708442 0.0992449
v -0.0152083 1.708835 0.1006918
vt 0.05620544 0.9385037
vt 0.03798708 0.9353785
vt 0.03533533 0.9420096
vt 0.05062748 0.9505441
vt 0.03111932 0.9473215
vt 0.04341403 0.959095
vt 0.0685369 0.9592961
vt 0.06060681 0.9717659
vt 0.08972718 0.9653501
vt 0.0956263 0.9515606
vt 0.07429942 0.9449666
vt 0.08279642 0.9767285
vt 0.1066151 0.9792372
vt 0.1118597 0.9686388
vt 0.1346136 0.9710727
vt 0.1366865 0.9599092
vt 0.1151919 0.9558747
vt 0.133213 0.980574
vt 0.1559327 0.9727288
vt 0.155447 0.9814479
vt 0.1780405 0.9737139
vt 0.178097 0.981805
vt 0.1578798 0.9618115
vt 0.1811379 0.9635098
vt 0.2030077 0.9646722
vt 0.2010701 0.9735818
vt 0.2242783 0.9649997
vt 0.2235159 0.9727157
vt 0.2010396 0.9812377
vt 0.2239069 0.9793313
vt 0.2474152 0.9714485
vt 0.2470504 0.9770309
vt 0.2703366 0.970356
vt 0.2484339 0.9657035
vt 0.2712144 0.9654449
vt 0.2706699 0.974715
vt 0.2970054 0.9682905
vt 0.01969809 0.9324796
vt 0.9799058 0.9063035
vt 0.9899615 0.8892131
vt 0.9788306 0.9066203
vt 0.9719326 0.9209356
vt 0.970728 0.9201578
vt 0.9634377 0.9358181
vt 0.9618434 0.934267
vt 0.9556953 0.944643
vt 0.9539832 0.942203
vt 0.946115 0.9523671
vt 0.9442042 0.9490356
vt 0.9342536 0.9598395
vt 0.9323047 0.9563259
vt 0.9217365 0.966035
vt 0.9201498 0.9616782
vt 0.9068139 0.9717837
vt 0.9057323 0.9658145
vt 0.890715 0.9683656
vt 0.8915465 0.9755959
vt 0.8730956 0.977936
vt 0.8727224 0.9693721
vt 0.8568934 0.9776661
vt 0.8556796 0.9694025
vt 0.8417821 0.9799262
vt 0.8416771 0.9751932
vt 0.8319089 0.9819208
vt 0.05620544 0.9385037
vt 0.05062748 0.9505441
vt 0.03533533 0.9420096
vt 0.03798708 0.9353785
vt 0.03111932 0.9473215
vt 0.04341403 0.959095
vt 0.0685369 0.9592961
vt 0.06060681 0.9717659
vt 0.08972718 0.9653501
vt 0.0956263 0.9515606
vt 0.07429942 0.9449666
vt 0.08279642 0.9767285
vt 0.1066151 0.9792372
vt 0.1118597 0.9686388
vt 0.1346136 0.9710727
vt 0.1366865 0.9599092
vt 0.1151919 0.9558747
vt 0.133213 0.980574
vt 0.1559327 0.9727288
vt 0.155447 0.9814479
vt 0.1780405 0.9737139
vt 0.178097 0.981805
vt 0.1578798 0.9618115
vt 0.1811379 0.9635098
vt 0.2030077 0.9646722
vt 0.2010701 0.9735818
vt 0.2242783 0.9649997
vt 0.2235159 0.9727157
vt 0.2010396 0.9812377
vt 0.2239069 0.9793313
vt 0.2474152 0.9714485
vt 0.2470504 0.9770309
vt 0.2703366 0.970356
vt 0.2484339 0.9657035
vt 0.2712144 0.9654449
vt 0.2706699 0.974715
vt 0.2970054 0.9682905
vt 0.01969809 0.9324796
vt 0.9799058 0.9063035
vt 0.9788306 0.9066203
vt 0.9899615 0.8892131
vt 0.9719326 0.9209356
vt 0.970728 0.9201578
vt 0.9634377 0.9358181
vt 0.9618434 0.934267
vt 0.9556953 0.944643
vt 0.9539832 0.942203
vt 0.946115 0.9523671
vt 0.9442042 0.9490356
vt 0.9342536 0.9598395
vt 0.9323047 0.9563259
vt 0.9217365 0.966035
vt 0.9201498 0.9616782
vt 0.9068139 0.9717837
vt 0.9057323 0.9658145
vt 0.890715 0.9683656
vt 0.8915465 0.9755959
vt 0.8730956 0.977936
vt 0.8727224 0.9693721
vt 0.8568934 0.9776661
vt 0.8556796 0.9694025
vt 0.8417821 0.9799262
vt 0.8416771 0.9751932
vt 0.8319089 0.9819208
vn 0.3623128 -0.5967823 0.7159472
vn 0.3506926 -0.6095504 0.7109592
vn 0.2625965 -0.4687381 0.8434023
vn 0.2827258 -0.4432782 0.8506295
vn 0.1267758 -0.2208716 0.9670283
vn 0.17578 -0.2194501 0.9596578
vn 0.3204873 -0.4018095 0.8578094
vn 0.2454983 -0.1875524 0.9510807
vn 0.3579978 -0.3758198 0.8547497
vn 0.3644354 -0.6200306 0.6948014
vn 0.3662594 -0.6066069 0.7056076
vn 0.3164076 -0.1295124 0.9397408
vn 0.3489745 -0.06438988 0.9349175
vn 0.3750443 -0.3493983 0.85864
vn 0.3935827 -0.3274402 0.8589969
vn 0.3795236 -0.6549202 0.6534839
vn 0.3705113 -0.6374054 0.6756003
vn 0.3605852 0.01078014 0.932664
vn 0.4304544 -0.2999781 0.8513061
vn 0.3884373 0.1236749 0.913138
vn 0.4889222 -0.2456369 0.837029
vn 0.4371623 0.2374658 0.867467
vn 0.4008308 -0.6681592 0.6268158
vn 0.4321925 -0.665573 0.6084589
vn 0.4794958 -0.6306956 0.6101695
vn 0.5740479 -0.1509236 0.8047926
vn 0.5661657 -0.5762849 0.5893657
vn 0.6807968 -0.0681943 0.7292909
vn 0.509801 0.3374063 0.7913658
vn 0.5984686 0.4471945 0.6647198
vn 0.7689033 -0.05132282 0.637302
vn 0.659909 0.5009581 0.5599654
vn 0.8316768 -0.06135989 0.5518592
vn 0.6494737 -0.543881 0.5313921
vn 0.6953087 -0.5454593 0.4679955
vn 0.7190247 0.5102459 0.4718609
vn 0.8708427 -0.05558936 0.4884085
vn 0.2474737 -0.5050969 0.8268215
vn 0.6953087 -0.5454593 0.4679955
vn 0.8708427 -0.05558936 0.4884085
vn 0.7794641 -0.2838516 0.5584478
vn 0.6494737 -0.543881 0.5313921
vn 0.6729361 -0.4703568 0.5708953
vn 0.5661657 -0.5762849 0.5893657
vn 0.5480967 -0.6137269 0.5682688
vn 0.4794958 -0.6306956 0.6101695
vn 0.4440304 -0.7080869 0.5490445
vn 0.4321925 -0.665573 0.6084589
vn 0.4019862 -0.7537108 0.51993
vn 0.4008308 -0.6681592 0.6268158
vn 0.3872162 -0.7552302 0.5288582
vn 0.3795236 -0.6549202 0.6534839
vn 0.3723246 -0.7342765 0.5676376
vn 0.3705113 -0.6374054 0.6756003
vn 0.3748686 -0.6948751 0.6136956
vn 0.3717026 -0.640196 0.6722993
vn 0.3644354 -0.6200306 0.6948014
vn 0.3662594 -0.6066069 0.7056076
vn 0.3692233 -0.5939016 0.7148112
vn 0.3623128 -0.5967823 0.7159472
vn 0.3603742 -0.5546902 0.749966
vn 0.3506926 -0.6095504 0.7109592
vn 0.3362949 -0.5447941 0.7681829
vn 0.3223782 -0.580566 0.7476735
vn -0.3623027 -0.596765 0.7159666
vn -0.2827179 -0.4432627 0.8506402
vn -0.2625898 -0.4687304 0.8434088
vn -0.3506868 -0.6095452 0.7109665
vn -0.126763 -0.2208544 0.9670339
vn -0.1757795 -0.219446 0.9596588
vn -0.320482 -0.4018006 0.8578156
vn -0.2454999 -0.1875527 0.9510803
vn -0.3580033 -0.3758195 0.8547475
vn -0.3644383 -0.6200356 0.6947953
vn -0.3662607 -0.6066065 0.7056073
vn -0.3164082 -0.1295106 0.9397408
vn -0.3489876 -0.06439335 0.9349124
vn -0.3750504 -0.3493983 0.8586374
vn -0.3935851 -0.3274374 0.8589969
vn -0.3795153 -0.6549068 0.6535022
vn -0.3705053 -0.6373956 0.6756127
vn -0.3605947 0.01078019 0.9326603
vn -0.4304533 -0.2999705 0.8513094
vn -0.3884452 0.1236782 0.9131342
vn -0.4889309 -0.2456311 0.8370257
vn -0.4371765 0.2374749 0.8674575
vn -0.4008222 -0.6681466 0.6268347
vn -0.4321901 -0.66557 0.6084639
vn -0.4794922 -0.6306953 0.6101726
vn -0.5740475 -0.150925 0.8047926
vn -0.5661665 -0.5762857 0.5893642
vn -0.6807867 -0.06819633 0.7293002
vn -0.5098026 0.3374051 0.7913653
vn -0.5984706 0.4471913 0.6647201
vn -0.7688962 -0.0513242 0.6373103
vn -0.6599174 0.5009602 0.5599535
vn -0.8316752 -0.06136359 0.5518612
vn -0.6494863 -0.5438929 0.5313644
vn -0.6953094 -0.5454627 0.4679908
vn -0.7190231 0.5102429 0.4718664
vn -0.8708461 -0.05559026 0.4884024
vn -0.2474725 -0.5050991 0.8268206
vn -0.6953094 -0.5454627 0.4679908
vn -0.7794952 -0.2838906 0.5583847
vn -0.8708461 -0.05559026 0.4884024
vn -0.6494863 -0.5438929 0.5313644
vn -0.6730118 -0.4704169 0.5707566
vn -0.5661665 -0.5762857 0.5893642
vn -0.5481337 -0.6137663 0.5681904
vn -0.4794922 -0.6306953 0.6101726
vn -0.4440231 -0.7080796 0.5490599
vn -0.4321901 -0.66557 0.6084639
vn -0.4019799 -0.7536959 0.5199565
vn -0.4008222 -0.6681466 0.6268347
vn -0.3872059 -0.7552102 0.5288942
vn -0.3795153 -0.6549068 0.6535022
vn -0.3723114 -0.7342499 0.5676806
vn -0.3705053 -0.6373956 0.6756127
vn -0.3748536 -0.6948462 0.6137374
vn -0.3717039 -0.6401975 0.6722972
vn -0.3644383 -0.6200356 0.6947953
vn -0.3662607 -0.6066065 0.7056073
vn -0.3692382 -0.5939235 0.7147853
vn -0.3623027 -0.596765 0.7159666
vn -0.3603752 -0.5546927 0.7499638
vn -0.3506868 -0.6095452 0.7109665
vn -0.336277 -0.5447721 0.7682065
vn -0.3223802 -0.580573 0.7476671
g Brow_0
f 3/3/3 2/2/2 1/1/1
f 4/4/4 3/3/3 1/1/1
f 5/5/5 3/3/3 4/4/4
f 6/6/6 5/5/5 4/4/4
f 4/4/4 7/7/7 6/6/6
f 7/7/7 8/8/8 6/6/6
f 7/7/7 9/9/9 8/8/8
f 10/10/10 9/9/9 7/7/7
f 11/11/11 10/10/10 7/7/7
f 11/11/11 7/7/7 4/4/4
f 1/1/1 11/11/11 4/4/4
f 9/9/9 12/12/12 8/8/8
f 13/13/13 12/12/12 9/9/9
f 14/14/14 13/13/13 9/9/9
f 14/14/14 15/15/15 13/13/13
f 16/16/16 15/15/15 14/14/14
f 17/17/17 16/16/16 14/14/14
f 9/9/9 10/10/10 17/17/17
f 14/14/14 9/9/9 17/17/17
f 15/15/15 18/18/18 13/13/13
f 18/18/18 15/15/15 19/19/19
f 20/20/20 18/18/18 19/19/19
f 20/20/20 19/19/19 21/21/21
f 22/22/22 20/20/20 21/21/21
f 21/21/21 19/19/19 23/23/23
f 15/15/15 16/16/16 23/23/23
f 19/19/19 15/15/15 23/23/23
f 24/24/24 21/21/21 23/23/23
f 21/21/21 24/24/24 25/25/25
f 26/26/26 21/21/21 25/25/25
f 22/22/22 21/21/21 26/26/26
f 26/26/26 25/25/25 27/27/27
f 28/28/28 26/26/26 27/27/27
f 29/29/29 26/26/26 28/28/28
f 29/29/29 22/22/22 26/26/26
f 30/30/30 29/29/29 28/28/28
f 28/28/28 31/31/31 30/30/30
f 31/31/31 32/32/32 30/30/30
f 31/31/31 33/33/33 32/32/32
f 31/31/31 34/34/34 33/33/33
f 28/28/28 27/27/27 34/34/34
f 31/31/31 28/28/28 34/34/34
f 34/34/34 35/35/35 33/33/33
f 33/33/33 36/36/36 32/32/32
f 33/33/33 37/37/37 36/36/36
f 35/35/35 37/37/37 33/33/33
f 5/5/5 38/38/38 3/3/3
f 3/3/3 38/38/38 2/2/2
f 41/41/41 40/40/40 39/39/39
f 41/41/41 39/39/39 42/42/42
f 43/43/43 41/41/41 42/42/42
f 43/43/43 42/42/42 44/44/44
f 45/45/45 43/43/43 44/44/44
f 44/44/44 46/46/46 45/45/45
f 46/46/46 47/47/47 45/45/45
f 46/46/46 48/48/48 47/47/47
f 48/48/48 49/49/49 47/47/47
f 48/48/48 50/50/50 49/49/49
f 50/50/50 51/51/51 49/49/49
f 50/50/50 52/52/52 51/51/51
f 52/52/52 53/53/53 51/51/51
f 53/53/53 52/52/52 54/54/54
f 55/55/55 53/53/53 54/54/54
f 55/55/55 54/54/54 56/56/56
f 54/54/54 57/57/57 56/56/56
f 56/56/56 57/57/57 58/58/58
f 59/59/59 56/56/56 58/58/58
f 59/59/59 58/58/58 60/60/60
f 61/61/61 59/59/59 60/60/60
f 60/60/60 62/62/62 61/61/61
f 62/62/62 63/63/63 61/61/61
f 62/62/62 64/64/64 63/63/63
f 67/67/67 66/66/66 65/65/65
f 68/68/68 67/67/67 65/65/65
f 67/67/67 69/69/69 66/66/66
f 69/69/69 70/70/70 66/66/66
f 71/71/71 66/66/66 70/70/70
f 72/72/72 71/71/71 70/70/70
f 73/73/73 71/71/71 72/72/72
f 73/73/73 74/74/74 71/71/71
f 74/74/74 75/75/75 71/71/71
f 75/75/75 65/65/65 66/66/66
f 71/71/71 75/75/75 66/66/66
f 76/76/76 73/73/73 72/72/72
f 76/76/76 77/77/77 73/73/73
f 77/77/77 78/78/78 73/73/73
f 79/79/79 78/78/78 77/77/77
f 79/79/79 80/80/80 78/78/78
f 80/80/80 81/81/81 78/78/78
f 73/73/73 78/78/78 81/81/81
f 74/74/74 73/73/73 81/81/81
f 82/82/82 79/79/79 77/77/77
f 79/79/79 82/82/82 83/83/83
f 82/82/82 84/84/84 83/83/83
f 83/83/83 84/84/84 85/85/85
f 84/84/84 86/86/86 85/85/85
f 83/83/83 85/85/85 87/87/87
f 79/79/79 83/83/83 87/87/87
f 80/80/80 79/79/79 87/87/87
f 85/85/85 88/88/88 87/87/87
f 88/88/88 85/85/85 89/89/89
f 85/85/85 90/90/90 89/89/89
f 85/85/85 86/86/86 90/90/90
f 89/89/89 90/90/90 91/91/91
f 90/90/90 92/92/92 91/91/91
f 90/90/90 93/93/93 92/92/92
f 86/86/86 93/93/93 90/90/90
f 93/93/93 94/94/94 92/92/92
f 95/95/95 92/92/92 94/94/94
f 96/96/96 95/95/95 94/94/94
f 97/97/97 95/95/95 96/96/96
f 98/98/98 95/95/95 97/97/97
f 92/92/92 95/95/95 98/98/98
f 91/91/91 92/92/92 98/98/98
f 99/99/99 98/98/98 97/97/97
f 100/100/100 97/97/97 96/96/96
f 101/101/101 97/97/97 100/100/100
f 101/101/101 99/99/99 97/97/97
f 102/102/102 69/69/69 67/67/67
f 102/102/102 67/67/67 68/68/68
f 105/105/105 104/104/104 103/103/103
f 103/103/103 104/104/104 106/106/106
f 104/104/104 107/107/107 106/106/106
f 106/106/106 107/107/107 108/108/108
f 107/107/107 109/109/109 108/108/108
f 110/110/110 108/108/108 109/109/109
f 111/111/111 110/110/110 109/109/109
f 112/112/112 110/110/110 111/111/111
f 113/113/113 112/112/112 111/111/111
f 114/114/114 112/112/112 113/113/113
f 115/115/115 114/114/114 113/113/113
f 116/116/116 114/114/114 115/115/115
f 117/117/117 116/116/116 115/115/115
f 116/116/116 117/117/117 118/118/118
f 117/117/117 119/119/119 118/118/118
f 118/118/118 119/119/119 120/120/120
f 121/121/121 118/118/118 120/120/120
f 121/121/121 120/120/120 122/122/122
f 120/120/120 123/123/123 122/122/122
f 122/122/122 123/123/123 124/124/124
f 123/123/123 125/125/125 124/124/124
f 126/126/126 124/124/124 125/125/125
f 127/127/127 126/126/126 125/125/125
f 128/128/128 126/126/126 127/127/127
